<?xml version="1.0" encoding="iso-8859-1"?>
<!-- Generator: Adobe Illustrator 19.0.0, SVG Export Plug-In . SVG Version: 6.00 Build 0)  -->
<svg version="1.1" id="Layer_1" xmlns="http://www.w3.org/2000/svg" xmlns:xlink="http://www.w3.org/1999/xlink" x="0px" y="0px"
	 viewBox="0 0 512 512" style="enable-background:new 0 0 512 512;" xml:space="preserve">
<g>
	<path style="fill:#FF7976;" d="M256,512C120.97,512,11.687,402.73,11.687,267.687c0-98.01,58.241-186.23,148.376-224.75
		c11.304-4.832,24.387,0.417,29.217,11.723c4.832,11.305-0.416,24.387-11.721,29.217C103.841,115.38,56.209,187.53,56.209,267.687
		c0,110.166,89.626,199.791,199.791,199.791s199.791-89.626,199.791-199.791c0-80.16-47.635-152.311-121.356-183.814
		c-11.305-4.831-16.553-17.912-11.723-29.217c4.832-11.304,17.911-16.557,29.219-11.723
		c90.139,38.518,148.382,126.739,148.382,224.754C500.313,402.718,391.043,512,256,512z"/>
	<path style="fill:#FF7976;" d="M256,202.08c-12.295,0-22.261-9.966-22.261-22.261V22.261C233.739,9.966,243.705,0,256,0
		c12.295,0,22.261,9.966,22.261,22.261v157.558C278.261,192.114,268.295,202.08,256,202.08z"/>
</g>
<g>
	<path style="fill:#FF5752;" d="M351.931,42.933c-11.307-4.834-24.387,0.419-29.219,11.723
		c-4.831,11.305,0.417,24.387,11.723,29.217c73.721,31.502,121.356,103.653,121.356,183.814
		c0,110.166-89.626,199.791-199.791,199.791V512c135.043,0,244.313-109.282,244.313-244.313
		C500.313,169.672,442.07,81.451,351.931,42.933z"/>
	<path style="fill:#FF5752;" d="M256,0v202.08c12.295,0,22.261-9.966,22.261-22.261V22.261C278.261,9.966,268.295,0,256,0z"/>
</g>
<g>
</g>
<g>
</g>
<g>
</g>
<g>
</g>
<g>
</g>
<g>
</g>
<g>
</g>
<g>
</g>
<g>
</g>
<g>
</g>
<g>
</g>
<g>
</g>
<g>
</g>
<g>
</g>
<g>
</g>
</svg>
