<?xml version="1.0" encoding="utf-8"?>
<!-- Generator: Adobe Illustrator 15.1.0, SVG Export Plug-In . SVG Version: 6.00 Build 0)  -->
<!DOCTYPE svg PUBLIC "-//W3C//DTD SVG 1.1//EN" "http://www.w3.org/Graphics/SVG/1.1/DTD/svg11.dtd">
<svg version="1.1" id="Layer_1" xmlns="http://www.w3.org/2000/svg" xmlns:xlink="http://www.w3.org/1999/xlink" x="0px" y="0px"
	 width="512px" height="512px" viewBox="0 0 512 512" enable-background="new 0 0 512 512" xml:space="preserve">
<g>
	<path fill="#FFF07C" d="M308.64,193.915l-79.057,145.651L128.404,196.331c-4.883-6.903-14.364-8.659-21.389-3.979l-93.555,62.369
		c-7.167,4.781-9.095,14.456-4.324,21.623s14.455,9.105,21.622,4.324l80.926-53.955l106.893,151.326
		c2.934,4.151,7.694,6.599,12.73,6.599c0.304,0,0.609-0.011,0.924-0.031c5.38-0.314,10.212-3.391,12.78-8.12l88.215-162.502
		C323.219,209.791,314.7,202.767,308.64,193.915z"/>
	<path fill="#FFFFFF" d="M354.748,127.362c-19.34,0-35.083,15.735-35.083,35.083c0,19.348,15.743,35.083,35.083,35.083
		c19.348,0,35.082-15.734,35.082-35.083C389.83,143.097,374.096,127.362,354.748,127.362z"/>
	<path fill="#FFF07C" d="M386.46,208.36l91.079,118.222c5.257,6.832,15.043,8.091,21.865,2.843c6.82-5.259,8.09-15.045,2.842-21.866
		l-95.747-124.272C402.378,193.478,395.384,202.178,386.46,208.36z"/>
	<path fill="#FFF07C" d="M245.012,376.486c-2.568,4.729-7.4,7.806-12.78,8.12c-0.315,0.021-0.62,0.031-0.924,0.031
		c-5.036,0-9.796-2.447-12.73-6.599L111.685,226.713l-80.926,53.955c-7.167,4.781-16.851,2.843-21.622-4.324
		s-2.843-16.842,4.324-21.623l93.555-62.369c7.025-4.68,16.506-2.924,21.389,3.979l101.178,143.235l79.057-145.651
		c6.061,8.852,14.579,15.876,24.588,20.069L245.012,376.486z"/>
	<path fill="#395B50" d="M354.748,197.528c-19.34,0-35.083-15.734-35.083-35.083c0-19.349,15.743-35.083,35.083-35.083
		c19.348,0,35.082,15.735,35.082,35.083C389.83,181.794,374.096,197.528,354.748,197.528z"/>
	<path fill="#FFF07C" d="M499.404,329.425c-6.822,5.248-16.608,3.989-21.865-2.843L386.46,208.36
		c8.924-6.182,15.918-14.882,20.039-25.074l95.747,124.272C507.494,314.38,506.225,324.166,499.404,329.425z"/>
</g>
</svg>
