<svg xmlns="http://www.w3.org/2000/svg" viewBox="0 0 512 512" width="512" height="512">
	<style>
		tspan { white-space:pre }
		.shp0 { fill: #FFF07C }
		.shp1 { fill: #FFF07C }
		.shp2 { fill: #FFF07C }
		.shp3 { fill: #395B50 }
	</style>
	<g id="Layer">
		<path id="Layer" class="shp0" d="M308.64 318.09L229.58 172.43L128.4 315.67C123.52 322.57 114.04 324.33 107.02 319.65L13.46 257.28C6.29 252.5 4.36 242.82 9.14 235.66C13.91 228.49 23.59 226.55 30.76 231.33L111.68 285.29L218.58 133.96C221.51 129.81 226.27 127.36 231.31 127.36C231.61 127.36 231.92 127.37 232.23 127.39C237.61 127.71 242.44 130.78 245.01 135.51L333.23 298.02C323.22 302.21 314.7 309.23 308.64 318.09Z" />
		<path id="Layer" class="shp1" d="M354.75 384.64C335.41 384.64 319.66 368.9 319.66 349.56C319.66 330.21 335.41 314.47 354.75 314.47C374.1 314.47 389.83 330.21 389.83 349.56C389.83 368.9 374.1 384.64 354.75 384.64Z" />
		<path id="Layer" class="shp2" d="M386.46 303.64L477.54 185.42C482.8 178.59 492.58 177.33 499.4 182.57C506.22 187.83 507.49 197.62 502.25 204.44L406.5 328.71C402.38 318.52 395.38 309.82 386.46 303.64Z" />
		<path id="Layer" class="shp2" d="M245.01 135.51C242.44 130.79 237.61 127.71 232.23 127.39C231.92 127.37 231.61 127.36 231.31 127.36C226.27 127.36 221.51 129.81 218.58 133.96L111.69 285.29L30.76 231.33C23.59 226.55 13.91 228.49 9.14 235.66C4.37 242.82 6.29 252.5 13.46 257.28L107.02 319.65C114.04 324.33 123.52 322.57 128.41 315.67L229.58 172.43L308.64 318.08C314.7 309.23 323.22 302.21 333.23 298.02L245.01 135.51Z" />
		<path id="Layer" class="shp3" d="M354.75 314.47C335.41 314.47 319.66 330.21 319.66 349.56C319.66 368.9 335.41 384.64 354.75 384.64C374.1 384.64 389.83 368.9 389.83 349.56C389.83 330.21 374.1 314.47 354.75 314.47Z" />
		<path id="Layer" class="shp2" d="M499.4 182.57C492.58 177.33 482.8 178.59 477.54 185.42L386.46 303.64C395.38 309.82 402.38 318.52 406.5 328.71L502.25 204.44C507.49 197.62 506.23 187.83 499.4 182.57Z" />
	</g>
</svg>
